<svg width="16" height="16" viewBox="0 0 16 16" fill="none" xmlns="http://www.w3.org/2000/svg">
<path d="M7.17697 1.51831C7.52612 0.827227 8.47388 0.827229 8.82303 1.51832L10.3463 4.53337C10.4809 4.79988 10.7263 4.98609 11.0107 5.03746L14.2272 5.61866C14.9645 5.75188 15.2573 6.69319 14.7358 7.25353L12.4607 9.69814C12.2596 9.91422 12.1659 10.2155 12.207 10.5138L12.6716 13.888C12.7781 14.6614 12.0114 15.2432 11.34 14.8984L8.4106 13.3942C8.15167 13.2613 7.84833 13.2613 7.58939 13.3942L4.66005 14.8984C3.9886 15.2432 3.22185 14.6614 3.32836 13.888L3.79302 10.5138C3.83409 10.2155 3.74035 9.91422 3.53925 9.69814L1.26415 7.25353C0.742674 6.69319 1.03554 5.75188 1.77281 5.61866L4.98934 5.03746C5.27365 4.98609 5.51906 4.79988 5.65371 4.53337L7.17697 1.51831Z" fill="#FFC936"/>
<path d="M6.2315 1.09833C6.94896 -0.320308 8.89976 -0.364623 9.69451 0.965072L9.7685 1.09833L11.2483 4.02681L14.3601 4.58899C15.9783 4.88107 16.5073 6.85379 15.4554 7.98282L13.2305 10.37L13.6859 13.6784C13.8955 15.1989 12.3439 16.5526 10.8221 15.772L8 14.3239L5.1779 15.772C3.65614 16.5526 2.10452 15.1989 2.31412 13.6784L2.76849 10.37L0.544574 7.98282C-0.507263 6.85379 0.0217194 4.88107 1.63986 4.58899L4.75063 4.02681L6.2315 1.09833ZM8.81599 1.57929C8.47001 0.895192 7.52999 0.895192 7.18401 1.57929L5.675 4.564L5.61977 4.65874C5.47998 4.87143 5.26288 5.01817 5.01637 5.06267L1.82953 5.63837C1.09904 5.77022 0.808652 6.70147 1.32513 7.25617L3.57927 9.67662C3.77848 9.89046 3.87207 10.1883 3.83146 10.4834L3.37084 13.8242C3.26557 14.5896 4.02493 15.1648 4.69018 14.8236L7.59357 13.3349C7.84992 13.2036 8.15008 13.2036 8.40643 13.3349L11.3098 14.8236C11.9337 15.1436 12.6408 14.6577 12.6396 13.9647L12.6292 13.8242L12.1685 10.4834C12.1279 10.1883 12.2215 9.89046 12.4207 9.67662L14.6749 7.25617C15.159 6.73624 14.9344 5.88491 14.3028 5.67168L14.1705 5.63837L10.9836 5.06267C10.7371 5.01817 10.52 4.87143 10.3802 4.65874L10.325 4.564L8.81599 1.57929Z" fill="#2A2A2A"/>
</svg>
